<svg width="600" height="600" viewBox="0 0 600 600" fill="none" xmlns="http://www.w3.org/2000/svg">
<path d="M277.846 423.989C276.84 422.982 276.337 420.969 276.337 417.95C276.337 413.672 276.84 411.534 277.846 411.534C280.612 411.534 284.384 411.03 289.162 410.024C294.192 408.766 298.97 407.13 303.497 405.117C308.024 402.853 310.665 400.462 311.419 397.946C313.934 393.165 315.317 384.736 315.569 372.659C316.323 344.226 317.078 318.183 317.832 294.531C318.586 270.879 319.215 251.127 319.718 235.275C320.473 219.172 320.85 208.73 320.85 203.949C320.85 199.168 320.473 195.646 319.718 193.381C319.215 191.871 316.952 190.487 312.928 189.229C309.156 187.971 305.006 186.965 300.479 186.21C296.204 185.455 292.935 185.078 290.671 185.078C289.665 185.078 289.162 182.939 289.162 178.661C289.162 175.894 289.665 174.006 290.671 173L310.287 174.132C319.341 174.887 327.137 175.265 333.676 175.265L370.644 173C374.165 183.568 379.572 197.407 386.865 214.517C394.158 231.627 402.709 251.505 412.517 274.15C422.576 296.796 433.013 321.706 443.827 348.881C443.827 349.384 444.204 349.636 444.958 349.636C445.713 349.636 446.09 349.258 446.09 348.503C457.156 321.832 467.089 297.677 475.891 276.037C484.693 254.147 492.364 234.646 498.902 217.536L512.483 173.755C520.027 174.51 530.338 174.887 543.416 174.887C548.445 174.887 554.607 174.761 561.9 174.51C569.444 174.006 578.246 173.503 588.306 173C589.06 174.006 589.438 176.019 589.438 179.039C589.438 183.316 588.935 185.455 587.929 185.455H587.174C580.384 185.455 574.223 187.468 568.69 191.494C564.918 194.01 563.283 200.804 563.786 211.875C564.289 222.946 564.918 241.566 565.672 267.734C566.678 293.651 567.81 326.99 569.067 367.752C569.57 381.843 571.582 393.417 575.103 402.475C575.857 403.985 577.743 405.495 580.761 407.004C584.031 408.263 587.426 409.395 590.947 410.401C594.467 411.156 596.982 411.534 598.491 411.534C599.497 411.534 600 413.798 600 418.327C600 420.089 599.749 421.976 599.246 423.989L552.846 421.724C544.044 421.724 534.991 421.976 525.686 422.479C516.381 422.982 508.71 423.485 502.675 423.989C501.669 422.982 501.166 421.095 501.166 418.327C501.166 413.798 501.669 411.534 502.675 411.534C505.441 411.534 509.465 410.779 514.746 409.269C520.027 407.508 523.548 405.621 525.308 403.608C527.823 400.337 529.081 395.933 529.081 390.398V369.262L525.308 254.524C524.051 238.924 522.542 231.124 520.782 231.124C520.027 231.124 519.399 231.879 518.896 233.388L446.845 409.269C442.569 418.83 437.791 423.611 432.51 423.611C432.007 423.611 431.378 423.485 430.624 423.234C430.121 423.234 429.492 423.108 428.738 422.856L344.238 219.801C343.232 251.001 342.226 280.692 341.22 308.874C340.466 337.055 339.46 363.475 338.202 388.133C338.202 393.669 338.58 397.569 339.334 399.833C340.34 401.595 343.106 403.482 347.633 405.495C352.16 407.256 356.812 408.766 361.591 410.024C366.62 411.03 370.141 411.534 372.153 411.534C373.159 411.534 373.662 413.798 373.662 418.327C373.662 420.089 373.411 421.976 372.908 423.989L325.377 421.724C318.586 421.724 309.659 422.102 298.593 422.856C287.276 423.611 280.36 423.989 277.846 423.989Z" fill="#160286"/>
<path d="M125.618 426.631C123.103 426.631 121.091 425.373 119.582 422.856L41.8725 229.614C36.3398 215.02 31.5616 203.823 27.5378 196.023C25.7774 192.752 21.8793 190.236 15.8437 188.474C9.80798 186.462 5.02973 185.455 1.50892 185.455C0.502973 185.455 0 183.568 0 179.794C0 176.271 0.37723 174.006 1.13169 173L21.8793 174.132C33.9507 174.887 43.3815 175.265 50.1716 175.265C53.6924 175.265 70.9192 174.51 101.852 173C102.607 174.006 102.984 176.271 102.984 179.794C102.984 183.568 102.481 185.455 101.475 185.455C96.4451 185.455 91.2897 186.587 86.0084 188.852C80.7272 191.116 78.0866 194.388 78.0866 198.665C78.0866 203.697 87.6431 229.488 106.756 276.037C109.774 283.838 112.289 290.002 114.301 294.531C118.827 306.357 123.228 317.177 127.504 326.99C131.779 336.551 135.3 343.974 138.066 349.258C140.833 354.542 142.216 356.681 142.216 355.674L197.291 225.462C202.321 213.385 204.836 204.704 204.836 199.42C204.836 194.891 201.818 191.494 195.782 189.229C189.998 186.713 184.088 185.455 178.053 185.455C177.047 185.455 176.544 183.694 176.544 180.171C176.795 176.397 177.172 174.006 177.675 173C179.939 173 185.974 173.377 195.782 174.132C205.59 174.887 213.512 175.265 219.548 175.265C226.087 175.265 233.631 174.887 242.182 174.132L260.666 173C261.169 174.51 261.42 176.397 261.42 178.661C261.42 182.939 261.169 185.078 260.666 185.078C257.397 185.078 252.996 186.084 247.463 188.097C242.182 189.858 238.032 192.5 235.014 196.023C231.493 201.559 226.087 212.63 218.793 229.237L140.33 413.043C136.557 422.102 131.653 426.631 125.618 426.631Z" fill="#160286"/>
</svg>
