<svg width="600" height="600" fill="none" xmlns="http://www.w3.org/2000/svg"><path d="M277.846 423.989c-1.006-1.007-1.509-3.02-1.509-6.039 0-4.278.503-6.416 1.509-6.416 2.766 0 6.538-.504 11.316-1.51 5.03-1.258 9.808-2.894 14.335-4.907 4.527-2.264 7.168-4.655 7.922-7.171 2.515-4.781 3.898-13.21 4.15-25.287a14680.08 14680.08 0 0 1 2.263-78.128c.754-23.652 1.383-43.404 1.886-59.256.755-16.103 1.132-26.545 1.132-31.326 0-4.781-.377-8.303-1.132-10.568-.503-1.51-2.766-2.894-6.79-4.152-3.772-1.258-7.922-2.264-12.449-3.019-4.275-.755-7.544-1.132-9.808-1.132-1.006 0-1.509-2.139-1.509-6.417 0-2.767.503-4.655 1.509-5.661l19.616 1.132c9.054.755 16.85 1.133 23.389 1.133L370.644 173c3.521 10.568 8.928 24.407 16.221 41.517 7.293 17.11 15.844 36.988 25.652 59.633 10.059 22.646 20.496 47.556 31.31 74.731 0 .503.377.755 1.131.755.755 0 1.132-.378 1.132-1.133 11.066-26.671 20.999-50.826 29.801-72.466 8.802-21.89 16.473-41.391 23.011-58.501l13.581-43.781c7.544.755 17.855 1.132 30.933 1.132 5.029 0 11.191-.126 18.484-.377 7.544-.504 16.346-1.007 26.406-1.51.754 1.006 1.132 3.019 1.132 6.039 0 4.277-.503 6.416-1.509 6.416h-.755c-6.79 0-12.951 2.013-18.484 6.039-3.772 2.516-5.407 9.31-4.904 20.381.503 11.071 1.132 29.691 1.886 55.859 1.006 25.917 2.138 59.256 3.395 100.018.503 14.091 2.515 25.665 6.036 34.723.754 1.51 2.64 3.02 5.658 4.529a120.364 120.364 0 0 0 10.186 3.397c3.52.755 6.035 1.133 7.544 1.133 1.006 0 1.509 2.264 1.509 6.793 0 1.762-.251 3.649-.754 5.662l-46.4-2.265c-8.802 0-17.855.252-27.16.755s-16.976 1.006-23.011 1.51c-1.006-1.007-1.509-2.894-1.509-5.662 0-4.529.503-6.793 1.509-6.793 2.766 0 6.79-.755 12.071-2.265 5.281-1.761 8.802-3.648 10.562-5.661 2.515-3.271 3.773-7.675 3.773-13.21v-21.136l-3.773-114.738c-1.257-15.6-2.766-23.4-4.526-23.4-.755 0-1.383.755-1.886 2.264l-72.051 175.881c-4.276 9.561-9.054 14.342-14.335 14.342-.503 0-1.132-.126-1.886-.377-.503 0-1.132-.126-1.886-.378l-84.5-203.055c-1.006 31.2-2.012 60.891-3.018 89.073-.754 28.181-1.76 54.601-3.018 79.259 0 5.536.378 9.436 1.132 11.7 1.006 1.762 3.772 3.649 8.299 5.662a129.15 129.15 0 0 0 13.958 4.529c5.029 1.006 8.55 1.51 10.562 1.51 1.006 0 1.509 2.264 1.509 6.793 0 1.762-.251 3.649-.754 5.662l-47.531-2.265c-6.791 0-15.718.378-26.784 1.132-11.317.755-18.233 1.133-20.747 1.133ZM125.618 426.631c-2.515 0-4.527-1.258-6.036-3.775l-77.71-193.242c-5.532-14.594-10.31-25.791-14.334-33.591-1.76-3.271-5.659-5.787-11.694-7.549-6.036-2.012-10.814-3.019-14.335-3.019-1.006 0-1.509-1.887-1.509-5.661 0-3.523.377-5.788 1.132-6.794l20.747 1.132c12.072.755 21.503 1.133 28.293 1.133 3.52 0 20.747-.755 51.68-2.265.755 1.006 1.132 3.271 1.132 6.794 0 3.774-.503 5.661-1.509 5.661-5.03 0-10.185 1.132-15.467 3.397-5.28 2.264-7.921 5.536-7.921 9.813 0 5.032 9.556 30.823 28.669 77.372 3.018 7.801 5.533 13.965 7.545 18.494 4.526 11.826 8.927 22.646 13.203 32.459 4.275 9.561 7.796 16.984 10.562 22.268 2.767 5.284 4.15 7.423 4.15 6.416l55.075-130.212c5.03-12.077 7.545-20.758 7.545-26.042 0-4.529-3.018-7.926-9.054-10.191-5.784-2.516-11.694-3.774-17.729-3.774-1.006 0-1.509-1.761-1.509-5.284.251-3.774.628-6.165 1.131-7.171 2.264 0 8.299.377 18.107 1.132 9.808.755 17.73 1.133 23.766 1.133 6.539 0 14.083-.378 22.634-1.133L260.666 173c.503 1.51.754 3.397.754 5.661 0 4.278-.251 6.417-.754 6.417-3.269 0-7.67 1.006-13.203 3.019-5.281 1.761-9.431 4.403-12.449 7.926-3.521 5.536-8.927 16.607-16.221 33.214L140.33 413.043c-3.773 9.059-8.677 13.588-14.712 13.588Z" fill="#160286"/></svg>